<svg width="150" height="27" viewBox="0 0 150 27" fill="none" xmlns="http://www.w3.org/2000/svg">
<path d="M34.3544 13.5361C34.3544 13.5361 38.32 11.6395 38.32 7.91018C38.32 3.64197 35.5946 0.250151 29.0647 0.250151H-0.00012207V26.7508H29.0647C35.5946 26.7508 38.32 23.359 38.32 19.0908C38.32 15.3564 34.3544 13.5361 34.3544 13.5361ZM29.9649 19.9184H7.69616V16.8754H29.9649V19.9184ZM29.9649 10.1456H7.69616V7.10504H29.9649V10.1456ZM40.7867 8.00019C40.7867 4.02953 44.6098 0.395175 48.1567 0.395175H75.0824V7.25382H49.0581V10.1456H75.0811L75.0836 16.9992H49.0581V19.8897H75.0811V26.7483H48.1567C44.6098 26.7483 40.7867 23.1177 40.7867 19.1446V8.00019ZM87.4069 10.1255L102.534 0.248901H115.014L95.1132 13.5261L114.935 26.7483H102.453L87.4069 16.8717L87.4044 26.7483H78.8068V0.248901H87.4044L87.4069 10.1255ZM141.205 0.248901H121.54C116.263 0.248901 112.749 3.69823 112.749 7.71014V19.2696C112.749 23.284 116.264 26.7296 121.54 26.7296H141.205C146.483 26.7296 150 23.284 150 19.2696V7.71014C150 3.69823 146.483 0.248901 141.205 0.248901ZM141.879 19.8372H120.87V7.1438H141.88V19.8372H141.879Z" fill="white" fill-opacity="0.5"/>
</svg>
